# xmcd
#
# Track frame offsets: 
#        150
#        30483
#        64889
#        84135
#        114860
#        154479
#        173237
#        198982
#
# Disc length: 3008 seconds
#
# Revision: 0
# Processed by: cddbd v1.5.2PL0 Copyright (c) Steve Scherf et al.
# Submitted via: ExactAudioCopy v0.95b4
#
DISCID=5c0bbe08
DTITLE=Eric Clapton - Camels With Bourbon on the Rocks, Red Rocks Ampi
DTITLE=theatre - Denver, Colorado - July 16, 1983 - CD1
DYEAR=1983
DGENRE=Blues
TTITLE0=I Shot The Sheriff
TTITLE1=Worried Life Blues
TTITLE2=Lay Down Sally
TTITLE3=Let It Rain
TTITLE4=Double Trouble
TTITLE5=Sweet Little Lisa
TTITLE6=Key To The Highway
TTITLE7=The Shape You're In
EXTD=
EXTT0=
EXTT1=
EXTT2=
EXTT3=
EXTT4=
EXTT5=
EXTT6=
EXTT7=
PLAYORDER=
